<!-- Generator: Adobe Illustrator 21.0.2, SVG Export Plug-In  -->
<svg version="1.1"
	 xmlns="http://www.w3.org/2000/svg" xmlns:xlink="http://www.w3.org/1999/xlink" xmlns:a="http://ns.adobe.com/AdobeSVGViewerExtensions/3.0/"
	 x="0px" y="0px" width="107.116px" height="18.18px" viewBox="0 0 107.116 18.18"
	 style="enable-background:new 0 0 107.116 18.18;" xml:space="preserve">
<style type="text/css">
	.st0{fill:#CC6688;}
	.st1{fill:#D4AAB8;}
</style>
<defs>
</defs>
<polygon class="st0" points="9.558,0 12.512,5.985 19.116,6.944 14.337,11.603 15.465,18.18 9.558,15.075 3.651,18.18 4.779,11.603 
	0,6.944 6.604,5.985 "/>
<polygon class="st0" points="31.558,0 34.512,5.985 41.116,6.944 36.337,11.603 37.465,18.18 31.558,15.075 25.651,18.18 
	26.779,11.603 22,6.944 28.604,5.985 "/>
<polygon class="st0" points="53.558,0 56.512,5.985 63.116,6.944 58.337,11.603 59.465,18.18 53.558,15.075 47.651,18.18 
	48.779,11.603 44,6.944 50.604,5.985 "/>
<polygon class="st0" points="75.558,0 78.512,5.985 85.116,6.944 80.337,11.603 81.465,18.18 75.558,15.075 69.651,18.18 
	70.779,11.603 66,6.944 72.604,5.985 "/>
<polygon class="st1" points="97.558,0 100.512,5.985 107.116,6.944 102.337,11.603 103.465,18.18 97.558,15.075 91.651,18.18 
	92.779,11.603 88,6.944 94.604,5.985 "/>
</svg>