<!-- Generator: Adobe Illustrator 21.0.2, SVG Export Plug-In  -->
<svg version="1.1"
	 xmlns="http://www.w3.org/2000/svg" xmlns:xlink="http://www.w3.org/1999/xlink" xmlns:a="http://ns.adobe.com/AdobeSVGViewerExtensions/3.0/"
	 x="0px" y="0px" width="184.145px" height="118.484px" viewBox="0 0 184.145 118.484"
	 style="enable-background:new 0 0 184.145 118.484;" xml:space="preserve">
<style type="text/css">
	.st0{clip-path:url(#SVGID_8_);fill:#F7F9EA;}
	.st1{clip-path:url(#SVGID_9_);fill:#8CC53E;}
	.st2{clip-path:url(#SVGID_9_);fill:#637328;}
	.st3{clip-path:url(#SVGID_9_);fill:#D2EB73;}
	.st4{clip-path:url(#SVGID_9_);fill:#5B8759;}
	.st5{clip-path:url(#SVGID_9_);fill:#DDF096;}
	.st6{clip-path:url(#SVGID_9_);fill:#264F24;}
	.st7{clip-path:url(#SVGID_9_);fill:#326930;}
	.st8{clip-path:url(#SVGID_10_);fill:#C7E650;}
	.st9{clip-path:url(#SVGID_10_);fill:#F2F8EA;}
	.st10{clip-path:url(#SVGID_11_);fill:#E57650;}
	.st11{clip-path:url(#SVGID_12_);fill:#FCEAD1;}
	.st12{clip-path:url(#SVGID_12_);fill:#F4FADC;}
	.st13{clip-path:url(#SVGID_12_);fill:#FDF5EA;}
	.st14{clip-path:url(#SVGID_12_);fill:#FCF1E1;}
	.st15{clip-path:url(#SVGID_12_);fill:#FEFEFE;}
	.st16{clip-path:url(#SVGID_12_);fill:#FDF8F0;}
	.st17{clip-path:url(#SVGID_13_);fill:#E6A95C;}
	.st18{clip-path:url(#SVGID_13_);fill:#7E4055;}
	.st19{clip-path:url(#SVGID_13_);fill:#FDEFDC;}
	.st20{clip-path:url(#SVGID_13_);fill:#FDEAD1;}
	.st21{clip-path:url(#SVGID_13_);fill:#FDE7CA;}
	.st22{clip-path:url(#SVGID_13_);fill:#FDE4C2;}
	.st23{clip-path:url(#SVGID_14_);fill:#CC6688;}
	.st24{clip-path:url(#SVGID_16_);fill:#F7F9EA;}
	.st25{clip-path:url(#SVGID_18_);fill:#8CC53E;}
	.st26{clip-path:url(#SVGID_18_);fill:#637328;}
	.st27{clip-path:url(#SVGID_18_);fill:#D2EB73;}
	.st28{clip-path:url(#SVGID_18_);fill:#5B8759;}
	.st29{clip-path:url(#SVGID_18_);fill:#DDF096;}
	.st30{clip-path:url(#SVGID_18_);fill:#264F24;}
	.st31{clip-path:url(#SVGID_18_);fill:#326930;}
	.st32{clip-path:url(#SVGID_20_);fill:#C7E650;}
	.st33{clip-path:url(#SVGID_20_);fill:#F2F8EA;}
	.st34{clip-path:url(#SVGID_22_);fill:#E57650;}
	.st35{clip-path:url(#SVGID_24_);fill:#FCEAD1;}
	.st36{clip-path:url(#SVGID_24_);fill:#F4FADC;}
	.st37{clip-path:url(#SVGID_24_);fill:#FDF5EA;}
	.st38{clip-path:url(#SVGID_24_);fill:#FCF1E1;}
	.st39{clip-path:url(#SVGID_24_);fill:#FEFEFE;}
	.st40{clip-path:url(#SVGID_24_);fill:#FDF8F0;}
	.st41{clip-path:url(#SVGID_26_);fill:#E6A95C;}
	.st42{clip-path:url(#SVGID_26_);fill:#7E4055;}
	.st43{clip-path:url(#SVGID_26_);fill:#FDEFDC;}
	.st44{clip-path:url(#SVGID_26_);fill:#FDEAD1;}
	.st45{clip-path:url(#SVGID_26_);fill:#FDE7CA;}
	.st46{clip-path:url(#SVGID_26_);fill:#FDE4C2;}
	.st47{clip-path:url(#SVGID_28_);fill:#CC6688;}
</style>
<defs>
</defs>
<g>
	<defs>
		<path id="SVGID_7_" d="M132.195,72.149c-10.202,18.501-21.677,26.051-31.383,25.283c-0.541,0.204-1.091,0.371-1.646,0.516
			c8.447,3.515,21.205,1.21,37.096-9.749c6.372-4.393,11.667-9.686,16.037-15.169c13.405-16.819,18.066-35.438,18.066-35.438
			s-12.666-1.915-28.818,1.275C140.766,49.18,138.292,61.096,132.195,72.149z"/>
	</defs>
	<use xlink:href="#SVGID_7_"  style="overflow:visible;fill:#7F4055;"/>
	<clipPath id="SVGID_8_">
		<use xlink:href="#SVGID_7_"  style="overflow:visible;"/>
	</clipPath>
	<path class="st0" d="M141.933,60.954c-4.28,1.222-6.438,0.458-6.401-4.735c0.028-3.911-1.116-8.099-6.746-7.879
		c-1.825,0.071-3.315-0.98-3.658-2.77c-0.309-1.618,0.966-2.573,2.254-3.51c4.141-3.014,7.961-6.569,13.837-4.745
		c2.068,0.642,4.683,0.624,5.162,3.078c0.45,2.307-1.113,5.146-2.656,6.018c-6.585,3.722-4.213,8.306-2.036,13.1
		C141.883,59.937,141.856,60.462,141.933,60.954z"/>
	<path class="st0" d="M155.428,63.355c-4.706-2.004-7.556,0.04-8.911,4.988c-0.261,0.953-0.822,2.014-2.102,1.113
		c-1.293-0.911-2.464-2.211-1.2-3.735c3.07-3.703,3.038-6.666-0.584-10.28c-2.28-2.274,0.068-4.441,2.574-4.895
		c2.053-0.372,3.582-1.156,5.27-2.316c3.535-2.432,8.908,1.48,10.364,7.324C162.047,60.409,160.037,63.518,155.428,63.355z"/>
	<path class="st0" d="M133.783,57.367c-1.757,3.823,0.979,5.545,4.023,6.847c1.546,0.661,2.171,1.342,1.49,2.934
		c-0.579,1.353-1.271,2.134-3.015,1.572c-3.415-1.1-6.403-0.577-8.749,2.557c-0.765,1.022-2.582,1.623-3.584,0.522
		c-2.628-2.885-4.724-6.423-5.007-10.21c-0.264-3.533,1.914-6.196,6.08-6.419c0.827-0.044,1.605-1.014,2.405-1.557
		c1.42-0.963,2.92-1.687,4.632-0.861C133.909,53.644,133.743,55.413,133.783,57.367z"/>
	<path class="st0" d="M155.641,30.299c1.691,0.02,3.381,0.039,5.072,0.059c1.513,0.979,2.917,2.029,4.894,2.166
		c1.484,0.102,2.855,0.942,3.062,2.752c0.207,1.81-0.259,3.416-2.048,4.115c-3.867,1.511-3.332,4.513-2.492,7.43
		c0.365,1.269,1.501,2.253-0.485,3.082c-1.398,0.583-2.737,0.666-3.449-0.781c-1.693-3.438-4.039-5.069-8.152-4.995
		c-2.416,0.044-4.307-2.187-2.499-4.986C151.484,36.139,150.659,31.192,155.641,30.299z"/>
	<path class="st0" d="M167.091,63.007c-2.91-2.164-4.988-3.62-0.937-6.925c2.867-2.339,4.94-5.791,1.559-9.933
		c-1.818-2.227-1.21-5.011,2.23-4.614c5.198,0.599,10.386,1.482,13.069,7.349c2.136,4.672,0.863,7.894-4.256,6.641
		C171.595,53.771,169.29,57.603,167.091,63.007z"/>
	<path class="st0" d="M165.084,84.896c-3.086,1.904-5.207,3.298-6.781-1.687c-1.114-3.528-3.557-6.73-8.655-5.118
		c-2.741,0.867-5.104-0.726-3.464-3.777c2.477-4.609,5.213-9.104,11.657-9.43c5.13-0.259,7.655,2.114,4.599,6.408
		C158.165,77.298,160.876,80.856,165.084,84.896z"/>
	<path class="st0" d="M161.484,43.217c-0.923-0.857-1.666-1.862-1.208-3.226C162.96,40.233,160.913,42.177,161.484,43.217z"/>
	<path class="st0" d="M115.554,103.042c-4.28,1.222-6.438,0.458-6.401-4.735c0.028-3.911-1.116-8.099-6.746-7.879
		c-1.825,0.071-3.315-0.98-3.658-2.77c-0.309-1.618,0.966-2.573,2.254-3.51c4.141-3.014,7.961-6.569,13.837-4.745
		c2.068,0.642,4.683,0.624,5.162,3.078c0.45,2.307-1.113,5.146-2.656,6.018c-6.585,3.722-4.213,8.306-2.036,13.1
		C115.504,102.025,115.477,102.55,115.554,103.042z"/>
	<path class="st0" d="M129.048,105.444c-4.706-2.004-7.556,0.04-8.911,4.988c-0.261,0.953-0.822,2.014-2.102,1.113
		c-1.293-0.911-2.464-2.211-1.2-3.735c3.07-3.703,3.038-6.666-0.584-10.28c-2.28-2.274,0.068-4.441,2.574-4.895
		c2.053-0.372,3.582-1.156,5.27-2.316c3.535-2.432,8.908,1.48,10.364,7.324C135.668,102.497,133.658,105.606,129.048,105.444z"/>
	<path class="st0" d="M107.404,99.455c-1.757,3.823,0.979,5.545,4.023,6.847c1.546,0.661,2.171,1.342,1.49,2.934
		c-0.579,1.353-1.271,2.134-3.015,1.572c-3.415-1.1-6.403-0.577-8.749,2.557c-0.765,1.022-2.582,1.623-3.584,0.522
		c-2.628-2.885-4.724-6.423-5.007-10.21c-0.264-3.533,1.914-6.196,6.08-6.419c0.827-0.044,1.605-1.014,2.405-1.557
		c1.42-0.963,2.92-1.687,4.632-0.861C107.529,95.733,107.363,97.501,107.404,99.455z"/>
	<path class="st0" d="M129.262,72.387c1.691,0.02,3.381,0.039,5.072,0.059c1.513,0.979,2.917,2.029,4.894,2.166
		c1.484,0.102,2.855,0.942,3.062,2.752c0.207,1.81-0.259,3.416-2.048,4.115c-3.867,1.511-3.332,4.513-2.492,7.43
		c0.365,1.269,1.501,2.253-0.485,3.082c-1.398,0.583-2.737,0.666-3.449-0.781c-1.693-3.438-4.039-5.069-8.152-4.995
		c-2.416,0.044-4.307-2.187-2.499-4.986C125.105,78.227,124.279,73.28,129.262,72.387z"/>
	<path class="st0" d="M140.711,105.095c-2.91-2.164-4.988-3.62-0.937-6.925c2.867-2.339,4.94-5.791,1.559-9.933
		c-1.818-2.227-1.21-5.011,2.23-4.614c5.198,0.599,10.386,1.482,13.069,7.349c2.136,4.672,0.863,7.894-4.256,6.641
		C145.216,95.859,142.911,99.692,140.711,105.095z"/>
	<path class="st0" d="M135.105,85.305c-0.923-0.857-1.666-1.862-1.208-3.226C136.581,82.321,134.534,84.266,135.105,85.305z"/>
	<use xlink:href="#SVGID_7_"  style="overflow:visible;fill:none;stroke:#FDFDFD;stroke-width:4;stroke-miterlimit:10;"/>
</g>
<g>
	<defs>
		<path id="SVGID_6_" d="M181.173,90.474c0,0-11.151-10.679-28.875-17.445c-4.37,5.483-9.665,10.777-16.037,15.169
			c-15.891,10.959-28.649,13.264-37.096,9.749c-0.908,0.238-1.831,0.405-2.77,0.489c-0.821,1.982-2.025,3.802-3.61,5.42
			c6.236,4.977,16.59,8.209,31.362,8.356C155.625,112.527,181.173,90.474,181.173,90.474z"/>
	</defs>
	<use xlink:href="#SVGID_6_"  style="overflow:visible;fill:#326930;"/>
	<clipPath id="SVGID_9_">
		<use xlink:href="#SVGID_6_"  style="overflow:visible;"/>
	</clipPath>
	<path class="st1" d="M76.22,99.422c5.797-3.348,10.773-7.706,15.446-12.454c1.475-1.499,3.154-4.191,3.674,0.733
		c0.418,3.957,3.165,0.104,4.716,1.178c0.692,2.167-1.242,3.03-2.493,4.159c-5.94,5.357-12.618,9.714-19.365,13.945
		c-4.99,3.13-6.909,1.913-7.193-4.284c0,0-0.066,0.108-0.066,0.108C72.104,100.749,74.839,101.142,76.22,99.422z"/>
	<path class="st2" d="M168.692,90.774c0.718,1.394,1.139,3.496,3.171,3.063c4.153-0.885,5.865,1.501,7.204,4.687
		c-2.38,2.789-4.76,5.578-7.141,8.367c-6.179,2.822-9.751-2.012-13.534-5.108c-2.356-1.928-0.368-4.451,1.832-5.515
		c2.029-0.982,3.581-2.104,3.139-4.369c-0.912-4.677,1.463-6.072,5.507-6.124c0.347,0.803,0.216,1.64,0.193,2.473
		C169.097,89.115,168.839,89.936,168.692,90.774z"/>
	<path class="st2" d="M140.826,94.662c1.32,2.299,2.326,4.589,3.818,6.501c1.551,1.987,3.478,3.372,6.427,2.001
		c3.071-1.427,6.172-0.499,8.463,1.705c1.432,1.378-1.568,7.581-3.634,9.326c-3.375,2.852-7.685,2.728-11.503,4.121
		c-1.089,0.397-2.386,0.114-3.006-1.127c-0.718-1.438-0.79-3.053,0.345-4.21c3.956-4.035,1.73-7.757-1.324-10.254
		C136.536,99.555,136.938,97.424,140.826,94.662z"/>
	<path class="st2" d="M136.25,85.89c5.02,2.447,9.139,2.647,12.017-3.509c1.469-3.143,5.802-2.788,7.924,0.045
		c2.102,2.806,4.314,5.621,3.121,9.543c-0.237,0.777-0.169,1.661-0.473,2.401c-0.593,1.446-9.764,5.887-11.251,5.564
		c-1.73-0.377-2.882-1.752-2.603-3.185c0.958-4.918-2.196-5.798-5.698-5.894C135.572,90.753,135.239,88.99,136.25,85.89z"/>
	<path class="st2" d="M122.567,111.307c-1.152-2.433-2.95-5.251-3.799-8.331c-0.707-2.565,1.482-4.303,3.835-3.968
		c3.661,0.521,5.144-1.416,6.318-4.182c0.695-1.636,1.263-2.886,3.634-2.038c2.866,1.025,1.032,2.457,0.77,3.85
		c-0.505,2.678-1.04,5.309,2.627,6.418c1.964,0.594,2.786,2.313,2.612,4.337c-0.167,1.945-1.504,3.025-3.289,3.185
		c-1.614,0.144-2.662,1.003-3.917,1.825C128.511,114.271,125.673,113.739,122.567,111.307z"/>
	<path class="st2" d="M168.161,87.834c0.236-0.686,0.473-1.372,0.709-2.059c0.731-1.936-1.115-2.644-1.849-3.882
		c0.005-0.452,0.174-0.825,0.535-1.106c0.472-0.085,0.913,0.066,1.36,0.176c-0.274-0.371-0.704-0.417-1.112-0.53
		c-1.2,0.027-2.389,0.067-3.578,0.037c-1.032-0.351-2.088-1.059-3.09-0.989c-3.589,0.25-3.716-1.605-2.872-4.233
		c1.47-1.616,2.622,0.121,3.918,0.363c0.55,0.281,1.017,0.739,1.679,0.788c2.883,1.795,5.209,1.783,7.727-1.1
		c2.041-2.336,5.671-4.002,8.26-2.057c2.634,1.979,1.805,5.537,0.895,8.859c-1.312,4.789-5.503,6.302-8.606,9.083
		C170.306,90.67,168.786,89.783,168.161,87.834z"/>
	<path class="st3" d="M164.227,80.471c0.976-1.029,2.107-1.398,3.463-0.812c0.079,0.485,0.44,0.976-0.032,1.449
		c-0.212,0.262-0.423,0.524-0.635,0.786C165.873,81.846,164.941,81.371,164.227,80.471z"/>
	<path class="st4" d="M168.161,87.834c1.32,1.123,2.158,2.819,3.977,3.35c-1.265,0.835-2.248-0.684-3.446-0.411
		C167.893,89.907,167.832,88.906,168.161,87.834z"/>
	<path class="st5" d="M167.657,81.108c0.011-0.483,0.022-0.966,0.032-1.449c2.021,0.116,3.409,0.841,3.142,3.28
		C169.31,83.037,168.793,81.524,167.657,81.108z"/>
	<path class="st2" d="M102.678,113.067c0.236-0.686,0.473-1.372,0.709-2.059c0.731-1.936-1.115-2.644-1.849-3.882
		c0.005-0.452,0.174-0.825,0.535-1.106c0.472-0.085,0.913,0.066,1.36,0.176c-0.274-0.371-0.704-0.417-1.112-0.53
		c-1.2,0.027-2.389,0.067-3.578,0.037c-1.032-0.351-2.088-1.059-3.09-0.989c-3.589,0.25-3.716-1.605-2.872-4.233
		c1.47-1.616,2.622,0.121,3.918,0.363c0.55,0.281,1.017,0.739,1.679,0.788c2.883,1.795,5.209,1.783,7.727-1.1
		c2.041-2.336,5.671-4.002,8.26-2.057c2.634,1.979,1.805,5.537,0.895,8.859c-1.312,4.789-5.503,6.302-8.606,9.083
		C104.823,115.902,103.303,115.016,102.678,113.067z"/>
	<path class="st6" d="M98.744,105.703c0.976-1.029,2.107-1.398,3.463-0.812c0.079,0.485,0.44,0.976-0.032,1.449
		c-0.212,0.262-0.423,0.524-0.635,0.786C100.39,107.079,99.458,106.604,98.744,105.703z"/>
	<path class="st7" d="M102.174,106.341c0.011-0.483,0.022-0.966,0.032-1.449c2.021,0.116,3.409,0.841,3.142,3.28
		C103.827,108.27,103.31,106.757,102.174,106.341z"/>
	<use xlink:href="#SVGID_6_"  style="overflow:visible;fill:none;stroke:#FDFDFD;stroke-width:4;stroke-miterlimit:10;"/>
</g>
<g>
	<defs>
		<path id="SVGID_5_" d="M94.058,98.49c-1.866-0.081-3.664-0.45-5.37-1.1c-8.414,4.278-21.635,2.304-38.304-9.192
			c-8.044-5.546-14.378-12.525-19.291-19.513C14.556,72.915,2.935,80.464,2.935,80.464s20.278,25.515,52.971,30.303
			c18.389,2.691,30.62-0.522,36.879-6.91c1.585-1.618,2.789-3.438,3.61-5.42C95.625,98.505,94.845,98.524,94.058,98.49z"/>
	</defs>
	<use xlink:href="#SVGID_5_"  style="overflow:visible;fill:#438C3F;"/>
	<clipPath id="SVGID_10_">
		<use xlink:href="#SVGID_5_"  style="overflow:visible;"/>
	</clipPath>
	<path class="st8" d="M29.132,93.714c-0.799,0.82-1.644,1.6-2.386,2.467c-1.414,1.652-2.809,1.52-2.995-0.597
		c-0.276-3.135-0.811-5-4.35-2.892c-0.566,0.337-1.28,0.426-1.709-0.289c-0.604-1.007-0.113-1.938,0.42-2.751
		c2.192-3.341,5.328-5.793,8.181-8.506c1.309-1.244,2.72-2.38,4.085-3.565c0.517-1.931,2.002-3.001,3.557-4.01
		c2.069-1.589,4.273-2.996,6.288-4.664c1.648-1.12,3.488-1.452,5.438-1.326c5.469,4.173,5.474,5.99,0.266,10.005
		c-5.24,4.039-10.432,8.15-14.729,13.247c-0.151,1.075-0.572,1.997-1.488,2.642C29.519,93.558,29.325,93.636,29.132,93.714z"/>
	<path class="st8" d="M25.419,78.104c-4.001,2.031-8.007,4.054-12.003,6.096c-2.281,1.165-4.73,2.574-6.386-0.626
		c-1.609-3.11,0.783-4.595,3.064-5.755c9.666-4.916,18.667-10.826,27.058-17.691c1.672-1.368,3.349-2.469,2.875,1.344
		c-0.453,3.641,1.802,2.172,3.398,1.549c2.808-1.097,3.038-0.213,1.66,2.039c-0.341,1.866-2.094,2.194-3.343,3.073
		c-2.556,2.335-5.742,3.788-8.384,6.003C30.767,75.571,27.662,75.975,25.419,78.104z"/>
	<path class="st8" d="M33.599,92.471c5.797-3.348,10.773-7.706,15.446-12.454c1.475-1.499,3.154-4.191,3.674,0.733
		c0.418,3.957,3.165,0.104,4.716,1.178c0.692,2.167-1.242,3.03-2.493,4.159c-5.94,5.357-12.618,9.714-19.365,13.945
		c-4.99,3.13-6.909,1.913-7.193-4.284c0,0-0.066,0.108-0.066,0.108C29.483,93.798,32.218,94.191,33.599,92.471z"/>
	<path class="st8" d="M55.212,102.728c5.524-3.781,10.152-8.508,14.448-13.599c1.356-1.607,2.824-4.42,3.719,0.449
		c0.719,3.914,3.163-0.139,4.792,0.814c0.855,2.108-1.006,3.117-2.167,4.338c-5.512,5.795-11.837,10.651-18.241,15.386
		c-4.736,3.503-6.743,2.436-7.499-3.722c0,0-0.057,0.112-0.057,0.112C51.21,104.365,53.967,104.548,55.212,102.728z"/>
	<path class="st8" d="M93.574,97.618c-6.103,2.751-11.49,6.59-16.615,10.846c-1.618,1.343-3.558,3.854-3.582-1.096
		c-0.02-3.979-3.138-0.42-4.574-1.644c-0.471-2.225,1.538-2.891,2.897-3.889c6.446-4.736,13.526-8.403,20.662-11.939
		c5.278-2.615,7.066-1.212,6.728,4.982c0,0,0.076-0.101,0.076-0.101C97.801,96.71,95.119,96.045,93.574,97.618z"/>
	<path class="st8" d="M52.836,97.861c-2.528,1.146-3.843,3.615-5.842,5.33c-1.309,1.123-2.399,5.525-4.554,0.422
		c-0.515-1.219-1.871,1.169-3.437,0.197c2.2-4.408,6.246-7.042,9.72-10.146c2.595-2.319,5.422-4.381,8.176-6.52
		c1.441-1.119,3.094-2.64,4.72-0.617c1.835,2.283-0.29,3.502-1.782,4.819c-2.414,2.132-5.318,3.749-7.038,6.619L52.836,97.861z"/>
	<path class="st9" d="M25.419,78.104c2.097-2.365,5.097-3.232,7.752-4.671c1.006-0.581,1.836-2.335,3.208-0.481
		c-1.367,1.001-2.733,2.002-4.1,3.002C29.585,75.373,27.8,77.688,25.419,78.104z"/>
	<use xlink:href="#SVGID_5_"  style="overflow:visible;fill:none;stroke:#FDFDFD;stroke-width:4;stroke-miterlimit:10;"/>
</g>
<g>
	<defs>
		<path id="SVGID_4_" d="M53.602,72.149c11.182,20.277,23.893,27.408,34.13,24.841C78.691,92.885,72.514,80.375,73.46,58.75
			c0.408-9.35,2.769-18.062,5.876-25.701C63.704,17.472,45.699,11.636,45.699,11.636S43.1,23.379,44.237,38.705
			C45.004,49.056,47.473,61.039,53.602,72.149z"/>
	</defs>
	<use xlink:href="#SVGID_4_"  style="overflow:visible;fill:#7F4055;"/>
	<clipPath id="SVGID_11_">
		<use xlink:href="#SVGID_4_"  style="overflow:visible;"/>
	</clipPath>
	<path class="st10" d="M40.78,19.837c4.671-2.047,8.561-0.571,12.059,2.672c2.727,1.999,3,4.69,1.867,7.56
		c-1.116,2.828-3.307,4.059-6.384,3.471c-5.436-1.227-8.77-4.391-9.32-10.119C39.595,22.226,40.188,21.032,40.78,19.837z"/>
	<path class="st10" d="M71.924,88.199c4.671-2.047,8.561-0.571,12.059,2.672c2.727,1.999,3,4.69,1.867,7.56
		c-1.116,2.828-3.307,4.059-6.384,3.471c-5.436-1.227-8.77-4.391-9.32-10.119C70.74,90.588,71.332,89.394,71.924,88.199z"/>
	<path class="st10" d="M64.912,25.081c0.326-0.039,0.664-0.034,0.976-0.122c3.785-1.069,7.291-0.828,9.774,2.623
		c1.417,1.968,0.989,4.144-0.378,6.026c-2.527,3.477-6.071,4.367-10.106,3.571c-1.109-0.219-2.134-0.861-3.198-1.309
		C57.558,31.309,58.744,26.944,64.912,25.081z"/>
	<path class="st10" d="M53.69,21.731c-1.802-4.217-0.429-7.145,3.525-8.834c4.467-1.908,9.071-0.538,13.363,3.78l0.143,0.441
		c0.812,3.807-1.541,5.87-4.407,7.649C61.108,27.231,57.369,26.332,53.69,21.731z"/>
	<path class="st10" d="M59.726,83.953c-1.802-4.217-0.429-7.145,3.524-8.834c4.467-1.908,9.071-0.538,13.363,3.78l0.143,0.441
		c0.812,3.807-1.541,5.87-4.407,7.649C67.144,89.452,63.404,88.553,59.726,83.953z"/>
	<path class="st10" d="M50.57,46.873c-6.455-3.413-6.891-6.485-1.689-11.901c5.138-3.506,8.712-3.128,11.711,1.238
		c1.241,2.277,1.135,4.569,0.075,6.871C57.737,47.648,55.815,48.37,50.57,46.873z"/>
	<path class="st10" d="M59.746,51.445c0.198,0.452,0.38,0.912,0.596,1.356c1.829,3.741,2.026,7.465-1.246,10.394
		c-2.2,1.97-4.989,1.703-7.209-0.315c-3.353-3.047-4.565-6.774-2.751-11.136c0.372-0.895,1.048-1.665,1.583-2.492
		C55.206,46.44,57.107,46.902,59.746,51.445z"/>
	<path class="st10" d="M61.74,67.207c0,0-0.098-0.434-0.098-0.432c0.507-3.544-0.909-8.401,4.458-9.109
		c5.167-0.682,6.456,3.527,7.491,7.527c0.069,0.267,0.413,0.464,0.63,0.693c0,0-0.037-0.105-0.037-0.105
		C70.411,73.024,68.585,73.233,61.74,67.207z"/>
	<path class="st10" d="M59.675,68.813c0,0,0.206,0.394,0.206,0.393c0.421,3.555,3.04,7.884-1.965,9.949
		c-4.818,1.988-7.146-1.747-9.174-5.347c-0.136-0.241-0.519-0.342-0.787-0.508c0,0,0.063,0.092,0.063,0.092
		C49.8,65.422,51.511,64.75,59.675,68.813z"/>
	<path class="st10" d="M61.334,43.411c2.949-1.673,5.962-2.004,9.002-0.298c2.648,1.486,4.652,3.494,3.59,6.819
		c-1.112,3.484-4.018,4.167-7.23,3.811c-1.84-0.204-3.465-1.117-4.945-2.237C57.834,47.979,57.801,47.328,61.334,43.411z"/>
	<path class="st10" d="M77.803,35.101c3.343,0.562,5.89,2.205,7.173,5.446c1.118,2.823,1.406,5.646-1.515,7.556
		c-3.06,2.002-5.746,0.7-8.014-1.603c-1.299-1.319-1.984-3.052-2.427-4.855C72.206,36.438,72.59,35.912,77.803,35.101z"/>
	<path class="st10" d="M44.943,3.801c3.343,0.562,5.89,2.205,7.173,5.446c1.118,2.823,1.406,5.646-1.515,7.556
		c-3.06,2.002-5.746,0.7-8.014-1.603c-1.299-1.319-1.984-3.052-2.427-4.855C39.346,5.138,39.73,4.612,44.943,3.801z"/>
	<use xlink:href="#SVGID_4_"  style="overflow:visible;fill:none;stroke:#FDFDFD;stroke-width:4;stroke-miterlimit:10;"/>
</g>
<g>
	<defs>
		<path id="SVGID_3_" d="M50.383,88.198c16.669,11.496,29.89,13.469,38.304,9.192c-0.322-0.123-0.64-0.258-0.956-0.401
			c-10.236,2.568-22.947-4.563-34.13-24.841c-6.129-11.11-8.598-23.093-9.365-33.443C28.5,35.749,16.28,37.591,16.28,37.591
			s3.897,15.569,14.813,31.094C36.006,75.673,42.339,82.652,50.383,88.198z"/>
	</defs>
	<use xlink:href="#SVGID_3_"  style="overflow:visible;fill:#7F4055;"/>
	<clipPath id="SVGID_12_">
		<use xlink:href="#SVGID_3_"  style="overflow:visible;"/>
	</clipPath>
	<path class="st11" d="M24.029,74.68c-0.298,0.087-0.594,0.178-0.89,0.274c-0.593-1.558-1.185-3.115-1.778-4.673
		c0.312-0.107,0.618-0.228,0.919-0.363C24.239,71,24.861,72.573,24.029,74.68z"/>
	<path class="st12" d="M57.555,76.592c2.664,3.566,2.718,5.854-2.15,7.666c-3.665,1.364-7.173,3.923-4.965,9.107
		c0.716,1.681,0.263,3.447-1.289,4.404c-1.403,0.865-2.748,0.012-4.082-0.859c-4.289-2.798-8.97-5.105-9.355-11.246
		c-0.135-2.161-1.082-4.598,1.042-5.919c1.996-1.241,5.206-0.79,6.569,0.342c5.82,4.831,9.262,0.984,12.968-2.755
		C56.622,77.001,57.123,76.839,57.555,76.592z"/>
	<path class="st12" d="M55.001,63.125c-0.2,5.111,2.724,7.047,7.83,6.555c0.983-0.095,2.175,0.052,1.787,1.569
		c-0.392,1.532-1.19,3.089-3.064,2.45c-4.552-1.553-7.311-0.47-9.4,4.201c-1.315,2.939-4.175,1.515-5.49-0.665
		c-1.078-1.787-2.354-2.937-4.039-4.101c-3.53-2.439-1.784-8.852,3.16-12.291C49.894,57.987,53.514,58.76,55.001,63.125z"/>
	<path class="st12" d="M30.7,41.869c-5.007,1.044-6.177,4.351-4.463,9.185c0.33,0.931,0.476,2.123-1.09,2.114
		c-1.582-0.009-3.285-0.406-3.119-2.379c0.404-4.793-1.316-7.207-6.353-8.102c-3.17-0.564-2.482-3.684-0.685-5.488
		c1.472-1.478,2.279-2.995,3.001-4.912c1.512-4.016,8.156-3.876,12.69,0.088C34.449,35.669,34.576,39.369,30.7,41.869z"/>
	<path class="st12" d="M57.1,85.484c4.198,0.283,4.835-2.887,4.97-6.195c0.069-1.68,0.482-2.507,2.212-2.436
		c1.47,0.06,2.446,0.429,2.541,2.259c0.186,3.583,1.738,6.19,5.501,7.268c1.227,0.352,2.435,1.836,1.763,3.164
		c-1.762,3.482-4.324,6.699-7.762,8.31c-3.209,1.503-6.472,0.414-8.161-3.4c-0.335-0.757-1.518-1.139-2.31-1.694
		c-1.405-0.985-2.615-2.129-2.452-4.023C53.576,86.691,55.288,86.218,57.1,85.484z"/>
	<path class="st12" d="M24.029,74.68c-0.583-1.587-1.166-3.174-1.748-4.762c0.377-1.762,0.859-3.448,0.284-5.345
		c-0.432-1.424-0.135-3.003,1.484-3.84c1.618-0.837,3.285-0.973,4.574,0.451c2.787,3.077,5.402,1.509,7.831-0.312
		c1.056-0.792,1.573-2.204,3.053-0.642c1.042,1.099,1.595,2.321,0.496,3.502c-2.612,2.805-3.302,5.577-1.77,9.395
		c0.9,2.243-0.512,4.803-3.772,4.108C30.965,76.489,26.635,79.02,24.029,74.68z"/>
	<path class="st12" d="M50.528,52.349c-0.988,3.489-1.61,5.95-6.139,3.338c-3.206-1.848-7.17-2.558-9.838,2.075
		c-1.435,2.491-4.253,2.913-5.106-0.444c-1.288-5.072-2.308-10.234,2.222-14.828c3.607-3.658,7.071-3.614,7.72,1.617
		C40.294,51.423,44.696,52.214,50.528,52.349z"/>
	<path class="st13" d="M49.978,85.249c-0.508,1.412-0.743,2.645-2.181,2.928c-0.111,0.022-0.453-0.462-0.469-0.724
		C47.222,85.662,48.537,85.61,49.978,85.249z"/>
	<path class="st14" d="M52.913,70.669c-0.336-0.846-0.205-1.427,0.484-1.716c1.094-0.46,1.778,0.215,2.392,0.989
		c0.433,0.547,0.053,0.893-0.362,1.109C54.44,71.566,53.618,71.104,52.913,70.669z"/>
	<path class="st15" d="M34.025,64.626c-0.473,1.168-1.148,2.219-2.586,2.277C30.712,64.307,33.257,65.529,34.025,64.626z"/>
	<path class="st16" d="M40.024,52.675c-1.181,0.523-2.27,0.999-3.398,0.06c-0.113-0.094-0.022-0.703,0.153-0.831
		C38.025,50.987,39.114,51.093,40.024,52.675z"/>
	<use xlink:href="#SVGID_3_"  style="overflow:visible;fill:none;stroke:#FDFDFD;stroke-width:4;stroke-miterlimit:10;"/>
</g>
<g>
	<defs>
		<path id="SVGID_2_" d="M118.033,60.696c-0.932,21.374-8.018,33.275-17.221,36.735c9.707,0.768,21.181-6.782,31.383-25.283
			c6.097-11.053,8.571-22.968,9.352-33.282c1.167-15.405-1.448-27.231-1.448-27.231s-13.837,4.486-27.781,16.082
			C115.881,36.936,118.577,48.222,118.033,60.696z"/>
	</defs>
	<use xlink:href="#SVGID_2_"  style="overflow:visible;fill:#7F4055;"/>
	<clipPath id="SVGID_13_">
		<use xlink:href="#SVGID_2_"  style="overflow:visible;"/>
	</clipPath>
	<path class="st17" d="M146.885,26.967c0.198,1.982,0.208,3.469-2.692,3.213c-4.38-0.387-8.802-0.29-13.206-0.399
		c-1.479-0.204-3.005,0.304-4.462-0.278c-1.458-0.392-2.945-0.622-4.447-0.775c-1.563-0.245-2.971-0.853-4.231-1.806
		c-3.681-2.415-9.041-1.722-11.577-6.256c0.987-2.388,3.031-1.706,4.717-1.421c10.372,1.754,20.804,2.696,31.325,2.648
		C145.703,21.878,147.101,23.707,146.885,26.967z"/>
	<path class="st17" d="M80.401,73.557c-0.461-1.938-0.67-3.41,2.239-3.544c4.392-0.202,8.762-0.889,13.141-1.37
		c1.493,0.004,2.938-0.703,4.459-0.321c1.497,0.193,3.002,0.223,4.511,0.174c1.581,0.034,3.059,0.448,4.434,1.225
		c3.971,1.901,9.19,0.498,12.309,4.653c-0.659,2.498-2.776,2.096-4.484,2.039c-10.514-0.352-20.978,0.109-31.398,1.562
		C82.252,78.442,80.623,76.816,80.401,73.557z"/>
	<path class="st17" d="M104.626,18.736c-2.694-2.126-2.214-3.519,1.036-4.034c13.472-2.135,26.792-1.291,40.07,1.765
		c3.372,0.776,2.076,3.183,2.716,4.959c-1.286,1.57-2.971,1.167-4.556,0.807C130.958,19.295,117.77,19.277,104.626,18.736z"/>
	<path class="st17" d="M71.719,89.232c-2.694-2.126-2.214-3.519,1.036-4.034c13.472-2.135,26.792-1.291,40.07,1.765
		c3.372,0.776,2.076,3.183,2.716,4.959c-1.286,1.57-2.971,1.167-4.556,0.807C98.052,89.791,84.863,89.773,71.719,89.232z"/>
	<path class="st17" d="M92.361,82.298c-2.694-2.126-2.214-3.519,1.036-4.034c13.472-2.135,26.792-1.291,40.07,1.765
		c3.372,0.776,2.076,3.183,2.716,4.959c-1.286,1.57-2.971,1.167-4.556,0.807C118.693,82.858,105.504,82.84,92.361,82.298z"/>
	<path class="st17" d="M134.855,46.569c-0.018,2.353-1.128,2.718-3.236,2.072c-8.819-2.706-17.926-3.579-27.083-3.459
		c-3.743,0.049-3.754-1.882-3.858-4.536c-0.138-3.526,2.272-2.608,4.07-2.432c4.751,0.465,9.486,1.106,14.227,1.677
		c1.905,0.093,3.842-0.011,5.611,0.914c1.165,0.488,2.382,0.777,3.641,0.904c0.869,0.113,1.684,0.373,2.405,0.886
		C132.201,43.747,133.849,44.818,134.855,46.569z"/>
	<path class="st17" d="M140.389,56.369c-0.018,2.353-1.128,2.718-3.236,2.072c-8.819-2.706-17.926-3.579-27.083-3.459
		c-3.743,0.049-3.754-1.882-3.858-4.536c-0.138-3.526,2.272-2.608,4.07-2.432c4.751,0.465,9.486,1.106,14.227,1.677
		c1.905,0.093,3.842-0.011,5.611,0.914c1.165,0.488,2.382,0.777,3.641,0.904c0.869,0.113,1.684,0.373,2.405,0.886
		C137.735,53.547,139.383,54.618,140.389,56.369z"/>
	<path class="st17" d="M129.99,43.222c-0.693-0.11-1.386-0.22-2.078-0.331c-0.85-0.912-1.882-1.508-3.098-1.79
		c-1.65-0.857-3.661-0.875-5.103-2.208c-5.04-1.993-10.259-3.193-15.647-3.82c-1.384-0.161-3.979,0.588-3.816-1.871
		c0.17-2.573,2.719-1.567,4.343-1.781c0.967-0.127,1.956-0.088,2.935-0.123c5.564-2.524,10.68-0.162,15.866,1.44
		c1.326,0.892,2.65,1.797,4.196,2.3c2.163,1.107,4.953,1.089,6.378,3.527c1.119,0.699,2.28,1.34,3.348,2.11
		c1.406,1.013,0.74,2.356,0.439,3.628c-0.568,2.408-2.001,0.725-3.091,0.665C132.825,45.133,131.577,43.723,129.99,43.222z"/>
	<path class="st17" d="M123.787,33.655c-5.343-1.318-10.714-2.448-16.262-2.357c-0.711-1.324-3.595-0.527-3.135-2.493
		c0.491-2.099,2.692-1.205,4.229-1.151c2.808,0.099,5.613,0.297,8.419,0.454c1.742-0.31,3.46-0.227,5.153,0.296
		c1.317,0.13,2.578,0.514,3.85,0.847c1.452,0.418,3.088,0.389,4.17,1.71c3.389,1.266,6.761,2.578,10.173,3.779
		c1.599,0.563,2.604,1.244,2.022,3.203c-0.831,2.795-2.284,0.719-3.429,0.473c-1.438-0.308-2.827-0.839-4.238-1.274
		c-2.43-0.001-4.586-1.032-6.809-1.807C126.606,34.637,125.048,34.511,123.787,33.655z"/>
	<path class="st17" d="M128.836,73.537c-0.693-0.11-1.386-0.22-2.078-0.331c-0.85-0.912-1.882-1.508-3.098-1.79
		c-1.65-0.857-3.661-0.875-5.103-2.208c-5.04-1.993-10.259-3.193-15.647-3.82c-1.384-0.161-3.979,0.588-3.816-1.871
		c0.17-2.573,2.719-1.567,4.343-1.781c0.967-0.127,1.956-0.088,2.935-0.123c5.564-2.524,10.68-0.162,15.866,1.44
		c1.326,0.892,2.65,1.797,4.196,2.3c2.163,1.107,4.953,1.089,6.378,3.527c1.119,0.699,2.28,1.34,3.348,2.11
		c1.406,1.013,0.74,2.357,0.439,3.628c-0.568,2.408-2.001,0.725-3.091,0.665C131.671,75.448,130.423,74.038,128.836,73.537z"/>
	<path class="st17" d="M122.633,63.97c-5.343-1.318-10.714-2.448-16.262-2.357c-0.711-1.324-3.595-0.527-3.135-2.493
		c0.491-2.099,2.692-1.205,4.229-1.151c2.808,0.099,5.613,0.297,8.419,0.454c1.742-0.31,3.46-0.227,5.153,0.296
		c1.317,0.13,2.578,0.514,3.85,0.847c1.452,0.418,3.088,0.389,4.17,1.71c3.389,1.266,6.761,2.578,10.173,3.779
		c1.599,0.563,2.604,1.244,2.022,3.203c-0.831,2.795-2.284,0.719-3.429,0.473c-1.438-0.308-2.827-0.839-4.238-1.274
		c-2.43-0.001-4.586-1.032-6.809-1.807C125.452,64.952,123.895,64.826,122.633,63.97z"/>
	<path class="st18" d="M104.626,18.736c12.485-1.982,24.788-0.631,37.048,1.904c2.213,0.458,4.375,1.79,6.775,0.786
		c-1.587,1.546-0.808,3.759-1.563,5.54c-0.387-2.252-1.094-3.889-3.987-3.821c-11.402,0.267-22.72-0.596-33.867-3.159
		c-1.06-0.244-1.941,0.044-2.761,0.678C105.722,20.022,105.174,19.379,104.626,18.736z"/>
	<path class="st18" d="M127.973,34.662c2.355,0.556,4.7,1.14,6.767,2.48c-0.258,0.474-0.517,0.949-0.775,1.423
		c-2.268-0.857-4.535-1.714-6.802-2.572C126.724,35.118,126.876,34.602,127.973,34.662z"/>
	<path class="st18" d="M119.71,38.893c2.069-0.178,3.759,0.843,5.49,1.734c0.398,0.686,0.438,1.141-0.587,0.909
		c-1.879-0.549-3.758-1.098-5.637-1.647C119.22,39.558,119.465,39.226,119.71,38.893z"/>
	<path class="st18" d="M130.212,30.961c-1.446-0.348-2.892-0.695-4.339-1.043c-0.397-0.832-0.363-1.383,0.786-1.208
		c1.505,0.104,3.022,0.16,4.327,1.071C130.729,30.174,130.47,30.567,130.212,30.961z"/>
	<path class="st19" d="M122.466,29.182c-1.809-0.358-3.619-0.716-5.428-1.074c0.27-0.395,0.539-0.791,0.809-1.186
		c1.703-0.695,2.916,0.737,4.395,1.012C122.648,28.29,122.722,28.706,122.466,29.182z"/>
	<path class="st20" d="M122.466,29.182c-0.075-0.416-0.149-0.832-0.224-1.248c1.585-0.383,3.037-0.007,4.417,0.777
		c-0.262,0.403-0.524,0.805-0.786,1.208C124.738,29.672,123.602,29.427,122.466,29.182z"/>
	<path class="st21" d="M124.613,41.537c0.196-0.303,0.392-0.607,0.587-0.91c1.604-0.084,2.634,0.519,2.711,2.264
		C126.715,42.676,125.475,42.567,124.613,41.537z"/>
	<path class="st22" d="M127.973,34.662c-0.27,0.444-0.54,0.888-0.81,1.331c-1.336-0.475-3.099-0.334-3.377-2.338
		C125.321,33.413,126.725,33.714,127.973,34.662z"/>
	<use xlink:href="#SVGID_2_"  style="overflow:visible;fill:none;stroke:#FDFDFD;stroke-width:4;stroke-miterlimit:10;"/>
</g>
<g>
	<defs>
		<path id="SVGID_1_" d="M73.46,58.75c-0.946,21.625,5.231,34.135,14.271,38.239c0.315,0.143,0.634,0.278,0.956,0.401
			c1.707,0.65,3.505,1.018,5.37,1.1c0.787,0.034,1.567,0.016,2.337-0.053c0.939-0.083,1.862-0.251,2.77-0.489
			c0.555-0.145,1.105-0.313,1.646-0.516c9.203-3.46,16.289-15.361,17.221-36.735c0.545-12.475-2.152-23.76-5.716-32.978
			C106.448,12.54,98.224,2.973,98.224,2.973S86.68,14.995,79.336,33.049C76.229,40.688,73.868,49.4,73.46,58.75z"/>
	</defs>
	<use xlink:href="#SVGID_1_"  style="overflow:visible;fill:#7F4055;"/>
	<clipPath id="SVGID_14_">
		<use xlink:href="#SVGID_1_"  style="overflow:visible;"/>
	</clipPath>
	<path class="st23" d="M99.129,24.619c3.498,0.117,6.879,2.011,8.802,4.026c1.645,1.725,0.382,6.006-1.439,8.668
		c-1.821,2.662-4.557,3.309-7.445,1.918c-1.445-0.696-2.595-2.004-3.879-3.035c-0.723-0.619-1.359-1.281-1.193-2.351
		c-0.515-4.374,1.192-7.488,5.253-9.267L99.129,24.619z"/>
	<path class="st23" d="M110.228,51.494c-0.725,3.764-4.537,5.862-8.974,4.94c-4.23-0.879-6.678-4.111-5.902-7.794
		c0.5-2.372,6.766-7.118,9.05-6.854C106.411,42.019,110.682,49.135,110.228,51.494z"/>
	<path class="st23" d="M78.541,52.738c0.273-0.418,0.477-0.91,0.831-1.242c1.527-1.431,1.401-5.037,3.4-4.809
		c2.644,0.301,5.69,0.264,8.068,2.109c2.803,2.175,3.045,6.242,0.525,9.333c-3.219,3.948-8.127,3.849-12.55-0.252
		C76.883,56.262,77.011,54.537,78.541,52.738z"/>
	<path class="st23" d="M99.228,24.578c-2.261-0.948-5.57,0.311-6.15-3.998c-0.45-3.346-0.668-6.152,2.95-7.231
		c3.377-1.007,6.381,0.309,7.714,3.682c1.393,3.526,0.122,6.115-3.746,7.119c-0.308,0.08-0.577,0.309-0.865,0.469
		C99.129,24.619,99.228,24.578,99.228,24.578z"/>
	<path class="st23" d="M77.059,71.925c-2.261-0.948-5.57,0.311-6.15-3.998c-0.45-3.346-0.668-6.152,2.95-7.231
		c3.377-1.007,6.381,0.309,7.714,3.682c1.393,3.526,0.122,6.115-3.746,7.119c-0.308,0.08-0.577,0.309-0.865,0.469
		C76.96,71.965,77.059,71.925,77.059,71.925z"/>
	<path class="st23" d="M115.089,79.608c-2.261-0.948-5.57,0.311-6.15-3.998c-0.45-3.346-0.668-6.152,2.95-7.231
		c3.377-1.007,6.381,0.309,7.714,3.682c1.393,3.526,0.122,6.115-3.746,7.119c-0.308,0.08-0.577,0.309-0.865,0.469
		C114.99,79.648,115.089,79.608,115.089,79.608z"/>
	<path class="st23" d="M115.089,47.536c-2.261-0.948-5.57,0.311-6.15-3.998c-0.45-3.346-0.668-6.152,2.95-7.231
		c3.377-1.007,6.381,0.309,7.714,3.682c1.393,3.526,0.122,6.115-3.746,7.119c-0.308,0.08-0.577,0.309-0.865,0.469
		C114.99,47.576,115.089,47.536,115.089,47.536z"/>
	<path class="st23" d="M116.656,66.782c-2.261-0.948-5.57,0.311-6.15-3.998c-0.45-3.346-0.668-6.152,2.95-7.231
		c3.377-1.007,6.381,0.309,7.714,3.682c1.393,3.526,0.122,6.115-3.746,7.119c-0.308,0.08-0.577,0.309-0.865,0.469
		C116.558,66.822,116.656,66.782,116.656,66.782z"/>
	<path class="st23" d="M85.911,30.083c-2.261-0.948-5.57,0.311-6.15-3.998c-0.45-3.346-0.668-6.152,2.95-7.231
		c3.377-1.007,6.381,0.309,7.714,3.682c1.393,3.526,0.122,6.115-3.746,7.119c-0.308,0.08-0.577,0.309-0.865,0.469
		C85.812,30.124,85.911,30.083,85.911,30.083z"/>
	<path class="st23" d="M100.228,12.019c-2.261-0.948-5.57,0.311-6.15-3.998c-0.45-3.346-0.668-6.152,2.95-7.231
		c3.377-1.007,6.381,0.309,7.714,3.682c1.393,3.526,0.122,6.115-3.746,7.119c-0.308,0.08-0.577,0.309-0.865,0.469
		C100.129,12.06,100.228,12.019,100.228,12.019z"/>
	<path class="st23" d="M94.265,36.984c-0.904,2.151,1.743,5.557-2.844,6.524c-2.733,0.576-5.197,1.481-7.191-0.926
		c-1.735-2.095-1.758-4.573-0.133-6.864c1.771-2.497,3.993-3.899,7.163-2.566c0.455,0.191,0.902,0.4,1.352,0.6
		C94.044,34.379,93.941,35.791,94.265,36.984z"/>
	<path class="st23" d="M98.141,58.523c3.498,0.117,6.879,2.011,8.802,4.026c1.645,1.725,0.382,6.006-1.439,8.668
		c-1.821,2.662-4.557,3.309-7.445,1.918c-1.445-0.696-2.595-2.004-3.879-3.035c-0.723-0.619-1.359-1.281-1.193-2.351
		c-0.515-4.374,1.192-7.488,5.253-9.267L98.141,58.523z"/>
	<path class="st23" d="M109.24,85.398c-0.725,3.764-4.537,5.862-8.974,4.94c-4.23-0.879-6.678-4.111-5.902-7.794
		c0.5-2.372,6.766-7.118,9.05-6.854C105.424,75.923,109.695,83.039,109.24,85.398z"/>
	<path class="st23" d="M77.553,86.642c0.273-0.418,0.477-0.91,0.831-1.242c1.527-1.431,1.401-5.037,3.4-4.809
		c2.644,0.301,5.69,0.264,8.068,2.109c2.803,2.175,3.045,6.242,0.525,9.333c-3.219,3.948-8.127,3.849-12.55-0.252
		C75.895,90.166,76.023,88.441,77.553,86.642z"/>
	<path class="st23" d="M93.278,70.888c-0.904,2.151,1.743,5.557-2.844,6.524c-2.733,0.576-5.197,1.481-7.191-0.926
		c-1.735-2.095-1.758-4.573-0.133-6.864c1.771-2.497,3.993-3.899,7.163-2.566c0.455,0.191,0.902,0.4,1.352,0.6
		C93.057,68.283,92.953,69.695,93.278,70.888z"/>
	<path class="st23" d="M101.415,94.901c-0.904,2.151,1.743,5.557-2.844,6.524c-2.733,0.576-5.197,1.481-7.191-0.926
		c-1.735-2.095-1.758-4.573-0.133-6.864c1.771-2.497,3.993-3.899,7.163-2.566c0.455,0.191,0.902,0.4,1.353,0.6
		C101.194,92.296,101.09,93.708,101.415,94.901z"/>
	<path class="st23" d="M77.379,78.232c-0.904,2.151,1.742,5.557-2.844,6.524c-2.733,0.576-5.197,1.481-7.191-0.926
		c-1.735-2.095-1.758-4.573-0.133-6.864c1.771-2.497,3.993-3.899,7.163-2.566c0.455,0.191,0.902,0.4,1.352,0.6
		C77.158,75.627,77.054,77.039,77.379,78.232z"/>
	<use xlink:href="#SVGID_1_"  style="overflow:visible;fill:none;stroke:#FDFDFD;stroke-width:4;stroke-miterlimit:10;"/>
</g>
</svg>